<svg width="45" height="44" viewBox="0 0 45 44" fill="none" xmlns="http://www.w3.org/2000/svg">
<g clip-path="url(#clip0_157_2178)">
<path d="M34.6182 12.8977C34.6182 13.3024 34.2787 13.6318 33.8616 13.6318C33.4446 13.6318 33.1051 13.3024 33.1051 12.8977V10.0367C33.1051 8.91597 32.8061 7.77013 32.2894 6.72456C31.7506 5.63602 30.9829 4.64774 30.0714 3.89936C28.1264 2.29878 25.5761 1.49311 23.0112 1.46447C20.4129 1.43582 17.811 2.20568 15.8107 3.75255C14.8438 4.50093 13.9617 5.47847 13.3454 6.57417C12.8102 7.52664 12.4781 8.56863 12.4781 9.61779V12.9264L12.5002 12.9192L13.183 13.7392C13.1313 12.4251 13.1239 11.0143 13.183 9.77176C13.2273 9.34565 13.3121 8.91955 13.4339 8.49344C14.5374 4.66206 19.0437 2.4241 22.9632 2.63179C25.9969 2.79292 28.8461 3.87072 30.6471 5.88309C33.1567 8.70112 32.5072 12.1744 32.4223 15.6119C32.987 15.7802 33.3486 16.124 33.4963 16.6861C33.6587 17.3092 33.4815 18.1829 32.939 19.3789C32.9279 19.4003 32.9168 19.4218 32.9058 19.4433L30.588 23.1458C29.6949 24.5709 28.787 26.0032 27.5802 27.1025L27.5433 27.1347C27.6835 27.346 27.8385 27.5859 27.9972 27.8401C28.3737 28.4309 28.7981 29.0898 29.2077 29.652C31.7506 31.5104 38.2646 31.9365 40.741 33.2757C41.5529 33.7161 42.2874 34.2747 42.8742 35.0302C44.332 36.8994 44.4464 39.4847 45.0037 41.7656C44.8745 43.1119 44.0884 43.8854 42.5383 44H2.46535C0.91897 43.8854 0.132863 43.1119 0 41.7656C0.557287 39.4847 0.668006 36.8994 2.1295 35.0302C2.72 34.2747 3.45075 33.7161 4.26269 33.2757C6.7428 31.9329 13.2605 31.5068 15.7996 29.6484C16.1982 28.789 16.6116 27.4534 16.8699 26.6263L16.8736 26.6083L16.977 26.2897C16.988 26.2503 17.0065 26.2181 17.0249 26.1822C16.2979 25.3408 15.6705 24.3955 15.0689 23.4681L13.0796 20.3994C12.9283 20.3886 12.7807 20.3636 12.6331 20.317C11.0387 19.83 9.71746 16.3925 9.97581 14.7705C10.1234 13.8502 10.4593 13.5208 11.0018 13.3203C10.976 13.2451 10.9612 13.1663 10.9612 13.0839V9.61779C10.9612 8.3144 11.3635 7.03608 12.0167 5.87593C12.7327 4.60119 13.755 3.4661 14.8659 2.60672C17.1393 0.845002 20.0882 -0.0286962 23.0185 -5.0321e-05C25.9268 0.0321762 28.8239 0.948843 31.0457 2.7786C32.116 3.65946 33.0202 4.81603 33.6513 6.09435C34.2639 7.34045 34.6219 8.70112 34.6219 10.0403V12.8977H34.6182ZM26.8125 27.7184C25.7053 28.5061 24.3693 28.9967 22.6679 28.9931C20.6971 28.9895 19.2135 28.2591 17.9956 27.1777C17.907 27.0989 17.8184 27.0201 17.7335 26.9378C17.3977 28.0227 16.8035 29.9348 16.2462 30.7584C16.8884 34.3391 18.3167 36.8994 19.6195 39.6243L21.4131 33.5836C21.1843 33.2076 21.0773 32.8782 21.0625 32.5953C20.1435 33.0966 19.1544 33.4296 18.1247 33.6516C17.0028 32.4127 16.9068 31.1201 18.1247 29.7487C19.5014 30.0852 20.7672 30.6582 21.9298 31.4316C22.2066 31.3421 22.5203 31.3206 22.8229 31.3671C24.0593 30.5042 25.6463 30.164 27.0303 29.5195C28.6726 31.0699 28.4954 32.4986 26.8826 33.8271C25.9083 33.6087 24.9856 33.2649 24.1073 32.8138C24.0962 33.0429 24.0372 33.3007 23.9227 33.5836L25.7164 39.6243C27.1041 36.7919 28.5471 33.9811 28.8756 30.7656C28.3257 30.0781 27.7426 29.1757 27.2406 28.388C27.0893 28.1516 26.9454 27.9261 26.8125 27.7184ZM14.1831 16.3388L15.0652 18.6842C15.1612 18.9563 15.1907 19.1927 15.1501 19.3968L15.1575 19.3896C16.5378 20.8756 18.2392 21.9498 20.2875 22.58C20.3908 22.3509 20.5347 22.1503 20.7451 21.9928C21.3688 21.5237 23.1994 21.5667 23.764 22.0214C24.2364 22.401 24.2438 23.2747 23.8932 23.7294C23.1625 24.6783 20.1214 23.8798 19.1028 23.5612C17.4789 23.0527 15.9989 21.8317 14.6518 20.736L16.0358 22.8701C16.8515 24.1269 17.704 25.4088 18.7669 26.3505C19.7892 27.2565 21.0256 27.8688 22.6642 27.8723C24.4394 27.8759 25.7348 27.2386 26.7904 26.2825C27.8865 25.2871 28.7501 23.9228 29.6026 22.5621L31.8908 18.9026C32.319 17.9573 32.474 17.3235 32.3743 16.9547C32.3153 16.7327 32.0643 16.6253 31.6362 16.6038C31.5439 16.6002 31.4517 16.6002 31.3557 16.6002C31.2524 16.6038 31.1453 16.611 31.0346 16.6181C30.9719 16.6217 30.9128 16.6181 30.8575 16.6074C30.6545 16.6181 30.4441 16.6038 30.2301 16.5751L31.0162 13.2093C25.196 14.0973 20.8447 9.90783 14.6961 12.3714L15.139 16.3388C14.8917 16.3496 14.6555 16.3424 14.4378 16.3102C14.3529 16.3245 14.2643 16.3317 14.1831 16.3388Z" fill="#D3D3D3"/>
</g>
<defs>
<clipPath id="clip0_157_2178">
<rect width="45" height="44" fill="white"/>
</clipPath>
</defs>
</svg>
