<svg width="45" height="44" viewBox="0 0 45 44" fill="none" xmlns="http://www.w3.org/2000/svg">
<g clip-path="url(#clip0_157_2213)">
<path fill-rule="evenodd" clip-rule="evenodd" d="M22.5 0C34.9255 0 45 9.85059 45 22C45 34.1494 34.9255 44 22.5 44C10.0745 44 0 34.1494 0 22C0 9.85059 10.0745 0 22.5 0ZM19.3799 10.9284H22.1301C22.6318 10.9284 23.0457 11.333 23.0457 11.8236V22.1862H32.7173C33.2227 22.1862 33.6328 22.5908 33.6328 23.0814V25.7705C33.6328 26.2647 33.219 26.6657 32.7173 26.6657H18.4607V11.8236C18.4607 11.3294 18.8745 10.9284 19.3799 10.9284ZM22.5 4.99512C32.1057 4.99512 39.8914 12.6077 39.8914 22C39.8914 31.3923 32.1057 39.0049 22.5 39.0049C12.8943 39.0049 5.10864 31.3923 5.10864 22C5.10864 12.6113 12.8943 4.99512 22.5 4.99512Z" fill="#D3D3D3"/>
</g>
<defs>
<clipPath id="clip0_157_2213">
<rect width="45" height="44" fill="white"/>
</clipPath>
</defs>
</svg>
