<svg width="45" height="44" viewBox="0 0 45 44" fill="none" xmlns="http://www.w3.org/2000/svg">
<g clip-path="url(#clip0_157_2195)">
<path d="M35.0574 5.67725C38.9136 9.40081 42.2351 14.7997 44.7546 21.3593L45 22L44.7546 22.6355C42.2351 29.195 38.9099 34.5939 35.0574 38.3175C31.2964 41.9518 27.0264 44 22.5 44C17.9736 44 13.7036 41.9518 9.94629 38.3228C6.08643 34.5939 2.76489 29.195 0.245361 22.6355L0 22L0.245361 21.3593C2.76489 14.7997 6.08643 9.40081 9.94263 5.67725C13.7036 2.04822 17.9736 0 22.5 0C27.0264 0 31.2927 2.04822 35.0574 5.67725ZM22.262 11.6434L23.7561 11.8482C23.2251 12.9931 22.9102 14.3796 22.9102 15.8763C22.9102 19.8047 25.0562 22.9873 27.7075 22.9873C28.5571 22.9873 29.3555 22.6617 30.0476 22.084C30.0586 22.3309 30.0659 22.5777 30.0659 22.8298C30.0659 29.0112 26.5723 34.0215 22.262 34.0215C17.9517 34.0215 14.458 29.0112 14.458 22.8298C14.458 16.6536 17.9517 11.6434 22.262 11.6434ZM39.917 22C37.9028 16.9267 35.2991 12.7567 32.3035 9.86297C29.3555 7.01647 26.0229 5.40941 22.5 5.40941C18.9807 5.40941 15.6482 7.01647 12.7002 9.86297C9.70459 12.7567 7.10083 16.9267 5.08301 22C7.09717 27.0733 9.70459 31.2433 12.7002 34.1318C15.6482 36.9783 18.9807 38.5853 22.5 38.5853C26.0229 38.5853 29.3518 36.9783 32.3035 34.1318C35.2991 31.2433 37.9028 27.0733 39.917 22Z" fill="#D3D3D3"/>
</g>
<defs>
<clipPath id="clip0_157_2195">
<rect width="45" height="44" fill="white"/>
</clipPath>
</defs>
</svg>
