<svg width="45" height="44" viewBox="0 0 45 44" fill="none" xmlns="http://www.w3.org/2000/svg">
<g clip-path="url(#clip0_157_2187)">
<path d="M21.9507 16.3508C21.6321 16.3824 21.3208 16.4274 21.0168 16.4769C17.8381 17.0353 15.4541 18.706 13.8354 20.98C12.2276 23.3354 11.2934 26.275 11.1768 29.3468C11.1324 30.2596 11.1483 31.1752 11.2244 32.0847C12.3161 32.4077 13.2846 33.1816 13.9681 34.2772C14.6515 35.3727 15.0085 36.7235 14.9793 38.1038C14.9502 39.4841 14.5366 40.8103 13.8078 41.8607C13.079 42.9111 12.0791 43.6222 10.9751 43.8749C9.87122 44.1277 8.73019 43.907 7.74274 43.2495C6.75529 42.5921 5.98124 41.5379 5.54996 40.263C5.11868 38.9882 5.0563 37.5699 5.37324 36.2453C5.69018 34.9207 6.36723 33.7699 7.29126 32.9854L7.43774 32.8638C7.31833 31.604 7.29014 30.3336 7.35352 29.0677C7.51896 24.9598 8.78024 21.0334 10.9424 17.8954C13.1396 14.7792 16.3147 12.5187 20.4639 11.7892C20.9106 11.7081 21.3721 11.6496 21.8481 11.6045L19.4897 9.18637L21.9507 5.58387L29.5862 13.4148L22.738 22.1238L19.9805 18.8591L21.9507 16.3508ZM37.8625 3.20622C38.7989 3.20488 39.7262 3.43138 40.591 3.87268C41.4559 4.31398 42.2411 4.96136 42.9016 5.7775C43.5644 6.59139 44.0903 7.55797 44.449 8.62197C44.8078 9.68596 44.9925 10.8265 44.9925 11.9783C44.9925 13.1301 44.8078 14.2707 44.449 15.3346C44.0903 16.3986 43.5644 17.3652 42.9016 18.1791C42.24 18.994 41.4543 19.6405 40.5893 20.0816C39.7243 20.5227 38.7971 20.7497 37.8607 20.7497C36.9243 20.7497 35.9971 20.5227 35.1321 20.0816C34.2671 19.6405 33.4814 18.994 32.8198 18.1791C31.483 16.5342 30.732 14.3038 30.732 11.9783C30.732 9.65278 31.483 7.42243 32.8198 5.7775C33.4812 4.96162 34.2672 4.31446 35.1326 3.8732C35.9979 3.43194 36.9257 3.20527 37.8625 3.20622ZM40.7922 8.37581C40.1131 7.53434 39.2174 7.00878 38.2582 6.88881C37.2991 6.76885 36.3357 7.06191 35.5327 7.718C34.7296 8.37408 34.1366 9.35252 33.8549 10.4863C33.5731 11.6201 33.6201 12.839 33.9877 13.935C34.3554 15.031 35.0209 15.9361 35.8708 16.4959C36.7207 17.0557 37.7023 17.2355 38.648 17.0046C39.5936 16.7736 40.4448 16.1463 41.0563 15.2297C41.6677 14.313 42.0015 13.1639 42.0007 11.9783C42.0018 10.6281 41.5672 9.33243 40.7922 8.37581ZM21.7896 37.6236L24.9976 35.372L23.1665 31.4228L26.1731 29.3243L28.0042 33.2691L31.2158 31.0175L32.9224 34.7146L29.7144 36.9661L31.5454 40.9109L28.5278 43.0183L26.6968 39.0736L23.4888 41.3251L21.7896 37.6236ZM0 8.29025L3.20801 6.03869L1.37695 2.08945L4.39453 0L6.22559 3.94473L9.43359 1.69317L11.1292 5.40375L7.92114 7.65531L9.7522 11.6L6.73828 13.685L4.90723 9.74025L1.69556 11.9918L0 8.29025ZM11.5393 36.7275C11.3062 36.3084 10.9621 36.0018 10.5656 35.8599C10.1692 35.718 9.74501 35.7496 9.36543 35.9494C8.98585 36.1492 8.67441 36.5048 8.48423 36.9554C8.29406 37.4061 8.23694 37.9239 8.32262 38.4206C8.40829 38.9172 8.63146 39.362 8.95404 39.6789C9.27662 39.9958 9.67863 40.1652 10.0915 40.1583C10.5043 40.1514 10.9025 39.9686 11.2179 39.641C11.5334 39.3135 11.7466 38.8614 11.8213 38.3621C11.864 38.0802 11.8611 37.7907 11.8128 37.5102C11.7644 37.2297 11.6714 36.9637 11.5393 36.7275Z" fill="#D3D3D3"/>
</g>
<defs>
<clipPath id="clip0_157_2187">
<rect width="45" height="44" fill="white"/>
</clipPath>
</defs>
</svg>
