<svg width="45" height="44" viewBox="0 0 45 44" fill="none" xmlns="http://www.w3.org/2000/svg">
<g clip-path="url(#clip0_157_2204)">
<path fill-rule="evenodd" clip-rule="evenodd" d="M22.5 0L27.4512 3.93522L33.75 2.94694L36.0242 8.77637L41.9861 11L40.9753 17.1589L45 22L40.9753 26.8411L41.9861 33L36.0242 35.2236L33.75 41.0531L27.4512 40.0648L22.5 44L17.5488 40.0648L11.25 41.0531L8.97583 35.2236L3.01392 33L4.02466 26.8411L0 22L4.02466 17.1589L3.01392 11L8.97583 8.77637L11.25 2.94694L17.5488 3.93522L22.5 0ZM22.5 14.1582L24.8218 19.7048L30.9338 20.1488L26.2573 24.0231L27.7148 29.8454L22.5037 26.6908L17.2925 29.8454L18.75 24.0231L14.0662 20.1488L20.1782 19.7048L22.5 14.1582ZM22.5 9.56413C29.5239 9.56413 35.2185 15.1322 35.2185 22C35.2185 28.8678 29.5239 34.4359 22.5 34.4359C15.4761 34.4359 9.78149 28.8678 9.78149 22C9.78149 15.1322 15.4761 9.56413 22.5 9.56413Z" fill="#D3D3D3"/>
</g>
<defs>
<clipPath id="clip0_157_2204">
<rect width="45" height="44" fill="white"/>
</clipPath>
</defs>
</svg>
