<svg width="53" height="44" viewBox="0 0 53 44" fill="none" xmlns="http://www.w3.org/2000/svg">
<g clip-path="url(#clip0_157_2169)">
<path fill-rule="evenodd" clip-rule="evenodd" d="M12.8661 38.4936V22.6234H20.0303C23.0667 23.165 26.1032 24.807 29.1396 26.7113H34.7036C37.2225 26.8617 38.5423 29.4065 36.0924 31.0786C34.1429 32.5057 31.568 32.4241 28.9283 32.1877C27.1082 32.0974 27.0305 34.5347 28.9283 34.5433C29.5882 34.5948 30.3042 34.4401 30.9296 34.4401C34.2249 34.4358 36.9335 33.8082 38.5941 31.2162L39.4265 29.2775L47.7034 25.1896C51.8441 23.8313 54.7856 28.147 51.7362 31.1517C45.741 35.4975 39.5947 39.0739 33.3062 41.9626C28.7385 44.7308 24.1709 44.6363 19.6076 41.9626L12.8661 38.4936ZM32.8145 3.35295C34.3801 1.7238 35.4757 0.318171 37.891 0.0430638C42.4198 -0.477061 46.5863 4.14818 44.3004 8.70035C43.6491 9.99852 42.325 11.5374 40.8585 13.0505C39.2497 14.7097 37.4683 16.3389 36.2175 17.5726L32.8145 20.9383L30.0023 18.2388C26.6208 14.9934 21.1042 10.9055 20.9231 5.84181C20.7937 2.29551 23.6059 0.0215711 26.8321 0.0645566C29.7219 0.098945 30.9339 1.53036 32.8145 3.35295ZM0 21.0974H10.7096V40.0884H0V21.0974Z" fill="#D3D3D3"/>
</g>
<defs>
<clipPath id="clip0_157_2169">
<rect width="53" height="44" fill="white"/>
</clipPath>
</defs>
</svg>
