<svg width="53" height="44" viewBox="0 0 53 44" fill="none" xmlns="http://www.w3.org/2000/svg">
<g clip-path="url(#clip0_169_961)">
<path d="M0.935954 44C0.418376 44 0 43.5422 0 42.9737C0 42.4052 0.418376 41.9474 0.935954 41.9474H4.8868V10.3586C4.8868 10.0316 5.00326 9.7297 5.18872 9.51338C5.3785 9.29202 5.63298 9.15619 5.91333 9.15619H11.5291C11.8137 9.15619 12.0682 9.29202 12.2537 9.51338C12.4391 9.7297 12.5556 10.0316 12.5556 10.3586V41.9424H16.735V19.5198C16.735 19.1928 16.8515 18.896 17.0369 18.6746C17.2224 18.4583 17.4812 18.3224 17.7572 18.3224H23.373C23.6619 18.3224 23.9164 18.4583 24.0976 18.6746C24.283 18.8909 24.3995 19.1978 24.3995 19.5198V41.9424H28.5789V1.19735C28.5789 0.870341 28.6954 0.573519 28.8809 0.352161C29.0793 0.135834 29.3337 0 29.6184 0H35.2341C35.5188 0 35.7733 0.135834 35.9587 0.352161C36.1442 0.568488 36.2607 0.875372 36.2607 1.19735V41.9424H40.4401V12.9796C40.4401 12.6526 40.5566 12.3508 40.742 12.1345C40.9275 11.9181 41.1863 11.7823 41.471 11.7823H47.0867C47.3713 11.7823 47.6301 11.9181 47.8113 12.1345C47.9967 12.3508 48.1132 12.6526 48.1132 12.9796V41.9474H52.064C52.5816 41.9474 53 42.4052 53 42.9737C53 43.5422 52.5816 44 52.064 44H47.2031C47.1945 44 47.1859 44 47.1772 44H41.3804C41.3717 44 41.3631 44 41.3545 44H35.3506C35.342 44 35.3333 44 35.3247 44H29.5278C29.5192 44 29.5106 44 29.502 44H23.5024C23.4937 44 23.4851 44 23.4765 44H17.6753C17.6667 44 17.658 44 17.6494 44H11.6455H11.6196H5.82275H5.79688H0.935954ZM10.6837 11.3446H6.75871V41.8116H10.6837V11.3446ZM22.5362 20.5058H18.6112V41.8116H22.5362V20.5058ZM34.3888 2.1834H30.4638V41.8116H34.3888V2.1834ZM46.237 13.9657H42.312V41.8166H46.237V13.9657Z" fill="#D3D3D3"/>
</g>
<defs>
<clipPath id="clip0_169_961">
<rect width="53" height="44" fill="white"/>
</clipPath>
</defs>
</svg>
