<svg width="53" height="44" viewBox="0 0 53 44" fill="none" xmlns="http://www.w3.org/2000/svg">
<g clip-path="url(#clip0_169_970)">
<path d="M26.5001 2.16587e-05C32.6334 -0.0014338 38.5775 1.76276 43.3195 4.99197C48.0616 8.22119 51.3081 12.7156 52.5059 17.7093C53.7037 22.703 52.7786 27.8871 49.8883 32.378C46.998 36.869 42.3214 40.3889 36.6553 42.3381C30.9892 44.2872 24.6842 44.5449 18.8149 43.0673C12.9456 41.5897 7.87504 38.4681 4.46732 34.2346C1.0596 30.0011 -0.474415 24.9176 0.126682 19.8504C0.727778 14.7831 3.42679 10.0457 7.76379 6.44533C10.2209 4.39869 13.1412 2.7756 16.3567 1.66946C19.5722 0.563322 23.0195 -0.00404044 26.5001 2.16587e-05ZM32.2193 19.2357V18.0684C32.2257 16.7495 31.6185 15.4796 30.5243 14.5235C30.0097 14.0648 29.3868 13.699 28.6945 13.4488C28.0021 13.1987 27.2552 13.0696 26.5001 13.0696C25.7451 13.0696 24.9981 13.1987 24.3058 13.4488C23.6134 13.699 22.9906 14.0648 22.4759 14.5235C21.3802 15.4788 20.7727 16.7493 20.7809 18.0684V19.2357H32.2193ZM18.2232 19.2357V18.0684C18.2205 16.2015 19.0857 14.4057 20.6385 13.0554C21.3904 12.3905 22.2984 11.8605 23.3066 11.4983C24.3147 11.136 25.4016 10.9491 26.5001 10.9491C27.5986 10.9491 28.6855 11.136 29.6937 11.4983C30.7018 11.8605 31.6098 12.3905 32.3617 13.0554C33.9145 14.4057 34.7797 16.2015 34.777 18.0684V19.2357H35.2299C35.5884 19.2357 35.9322 19.3537 36.1861 19.5637C36.4399 19.7738 36.5831 20.0589 36.5843 20.3565V31.4388C36.5831 31.7367 36.4401 32.0222 36.1863 32.2328C35.9326 32.4435 35.5888 32.5622 35.2299 32.5632H17.7703C17.4119 32.5622 17.0685 32.4434 16.8154 32.2326C16.5624 32.0218 16.4203 31.7364 16.4203 31.4388V20.3565C16.4203 20.0592 16.5625 19.7742 16.8157 19.564C17.0689 19.3538 17.4123 19.2357 17.7703 19.2357H18.2016H18.2232ZM25.4477 26.4007L24.0244 29.4587H28.9759L27.6819 26.3614C28.2049 26.1411 28.6222 25.78 28.8656 25.3371C29.109 24.8942 29.164 24.3958 29.0216 23.9236C28.8792 23.4514 28.5478 23.0333 28.0818 22.7378C27.6158 22.4424 27.0427 22.2871 26.4564 22.2974C25.8702 22.3077 25.3055 22.483 24.855 22.7945C24.4044 23.106 24.0946 23.5354 23.9764 24.0122C23.8582 24.489 23.9385 24.985 24.2043 25.419C24.47 25.8529 24.9054 26.1991 25.4391 26.4007H25.4477ZM42.3423 8.85517C38.6816 5.8147 33.8641 3.92213 28.7109 3.49996C23.5577 3.07779 18.3877 4.15214 14.0817 6.53995C9.77571 8.92775 6.6003 12.4812 5.09657 16.5949C3.59284 20.7086 3.85384 25.1278 5.83509 29.0996C7.81634 33.0714 11.3952 36.35 15.9619 38.3766C20.5286 40.4033 25.8005 41.0526 30.8792 40.214C35.958 39.3753 40.5293 37.1006 43.8142 33.7774C47.0991 30.4542 48.8943 26.2882 48.894 21.9893C48.8938 19.5505 48.3134 17.1358 47.1862 14.8837C46.0589 12.6316 44.4069 10.5865 42.3251 8.86591L42.3423 8.85517Z" fill="#D3D3D3"/>
</g>
<defs>
<clipPath id="clip0_169_970">
<rect width="53" height="44" fill="white"/>
</clipPath>
</defs>
</svg>
