<svg width="43" height="44" viewBox="0 0 43 44" fill="none" xmlns="http://www.w3.org/2000/svg">
<g clip-path="url(#clip0_169_951)">
<path d="M34.2853 6.69775C34.1698 6.57959 34.0508 6.49437 33.9284 6.44137C33.8136 6.3916 33.6796 6.36725 33.5259 6.36725C33.3716 6.36725 33.2348 6.39232 33.1186 6.44281C32.9982 6.49473 32.8821 6.57852 32.7708 6.69417L32.7634 6.70169L30.5914 8.91745C30.266 9.24867 29.7631 9.28555 29.3981 9.02952C29.1427 8.86051 28.8704 8.69759 28.5849 8.53968C28.2822 8.3721 27.9855 8.22171 27.6957 8.08564C27.3937 7.94456 27.0854 7.81172 26.7715 7.68711C26.4871 7.57396 26.17 7.45866 25.8243 7.34193C25.4285 7.20837 25.1769 6.83167 25.1769 6.42669V3.01855C25.1769 2.85527 25.1517 2.71097 25.1017 2.58529C25.0516 2.46104 24.9753 2.34538 24.87 2.23796C24.7675 2.13304 24.6562 2.05534 24.5344 2.00485C24.412 1.95365 24.2706 1.92822 24.1107 1.92822H19.9307C19.7827 1.92822 19.6515 1.95257 19.5367 2.00127C19.4149 2.05247 19.2956 2.13626 19.1777 2.25299L19.1763 2.25407C19.0727 2.36006 18.9964 2.47285 18.9474 2.59281C18.897 2.71563 18.8718 2.85742 18.8718 3.01855V6.1388C18.8718 6.61325 18.537 7.00749 18.096 7.08805C17.7612 7.16969 17.4518 7.2542 17.1701 7.34264C16.8615 7.43932 16.5511 7.54925 16.24 7.6735C16.2246 7.67959 16.2092 7.68532 16.1938 7.69033C15.9219 7.79847 15.6353 7.9238 15.3344 8.06595C15.0285 8.21025 14.7437 8.35671 14.4798 8.50387C14.1079 8.7112 13.6592 8.63421 13.3723 8.34525L13.372 8.34561L10.9665 5.91966C10.9592 5.91214 10.9518 5.90462 10.9445 5.8971C10.8419 5.7861 10.7342 5.70518 10.6211 5.65469C10.5127 5.60635 10.3842 5.58164 10.2345 5.58164C10.0857 5.58164 9.95277 5.60742 9.83589 5.65863C9.70782 5.71449 9.58534 5.80186 9.46776 5.91966L9.46706 5.92038L6.54898 8.91315L6.54723 8.9153L6.54898 8.91709C6.4293 9.03955 6.34462 9.1613 6.29458 9.28232C6.24594 9.39977 6.22179 9.53691 6.22179 9.69375C6.22179 9.85202 6.24629 9.99167 6.29563 10.1113C6.34637 10.2341 6.4279 10.353 6.54128 10.4668L6.54863 10.4743L8.71401 12.6973C9.03769 13.0303 9.07374 13.5448 8.82354 13.9183C8.65837 14.18 8.49915 14.4583 8.34518 14.7505C8.18141 15.0605 8.03444 15.3635 7.90147 15.6607C7.76324 15.9693 7.63342 16.2852 7.51129 16.6063C7.40071 16.8971 7.28838 17.2215 7.17431 17.5753C7.04378 17.9806 6.6753 18.2377 6.27988 18.2377L2.95028 18.2381C2.79001 18.2381 2.64934 18.2635 2.52651 18.3144C2.40543 18.3652 2.29345 18.4425 2.19127 18.5475L2.18743 18.5518C2.0849 18.6567 2.00896 18.7709 1.95927 18.8948C1.90923 19.0205 1.88473 19.1648 1.88473 19.3284V23.606C1.88473 23.7571 1.90818 23.8917 1.95577 24.0088C2.00616 24.1334 2.08804 24.2555 2.20212 24.3765L2.20317 24.3772C2.3064 24.4832 2.41698 24.5617 2.53386 24.6114C2.65423 24.663 2.79281 24.6888 2.95028 24.6888H5.99923C6.46289 24.6888 6.84817 25.0314 6.9269 25.483C7.00669 25.8253 7.08927 26.1422 7.17571 26.4304C7.27054 26.7463 7.37762 27.0635 7.49904 27.3818C7.61312 27.6851 7.7426 28.0002 7.88677 28.3268C8.03409 28.6609 8.17826 28.9652 8.31823 29.2406C8.51315 29.6223 8.43231 30.0771 8.14817 30.366L8.14887 30.3667L5.77773 32.7859L5.76268 32.8009C5.6542 32.9062 5.57512 33.0165 5.52613 33.1318C5.47854 33.2428 5.45474 33.3745 5.45474 33.5278C5.45474 33.68 5.47994 33.8157 5.52963 33.9353C5.58422 34.0663 5.6696 34.192 5.78508 34.312L8.69266 37.3216C8.80639 37.4294 8.92502 37.5081 9.04924 37.5579C9.17382 37.6084 9.31519 37.6331 9.47336 37.6331C9.63293 37.6331 9.77675 37.6077 9.90343 37.5565C10.0252 37.5074 10.1396 37.4322 10.2457 37.3305L12.4009 35.0901C12.726 34.7521 13.2351 34.7116 13.604 34.9723C13.8591 35.1406 14.1303 35.3028 14.4151 35.46C14.7181 35.6279 15.0142 35.7783 15.3046 35.914C15.6063 36.0558 15.9149 36.1886 16.2288 36.3133C16.5129 36.426 16.8296 36.5413 17.1757 36.6581C17.5718 36.7916 17.8231 37.1687 17.8231 37.5733L17.8234 40.9814C17.8234 41.1447 17.8483 41.289 17.8983 41.4147C17.948 41.539 18.0236 41.6532 18.1261 41.7581L18.1279 41.7603L18.1296 41.7581C18.335 41.9683 18.587 42.0718 18.8886 42.0718H23.0682C23.2166 42.0718 23.3478 42.0478 23.4626 41.9991C23.5844 41.9475 23.7037 41.8637 23.8213 41.747L23.8227 41.7459C23.9259 41.6399 24.0025 41.5271 24.0515 41.4076C24.1023 41.2844 24.1275 41.1429 24.1275 40.9818V37.8612C24.1275 37.3871 24.4616 36.9925 24.9033 36.9123C25.2374 36.8307 25.5471 36.7458 25.8292 36.6577C26.1375 36.5607 26.4479 36.4511 26.7586 36.3272C27.0553 36.2101 27.3636 36.0776 27.6835 35.9301C28.0089 35.7794 28.3067 35.6322 28.5747 35.489C28.9485 35.2895 29.3929 35.3726 29.6753 35.663L29.676 35.6623L32.0401 38.0882L32.0545 38.1036C32.1584 38.2153 32.2662 38.2959 32.3785 38.346C32.4884 38.3944 32.621 38.4191 32.7792 38.4191C32.9342 38.4191 33.0689 38.3933 33.1851 38.3421C33.302 38.2902 33.4108 38.2103 33.5098 38.1033C33.5207 38.0911 33.5322 38.0793 33.5448 38.0674L36.4734 35.1055C36.578 34.9895 36.6554 34.8677 36.7037 34.7406C36.753 34.6131 36.7775 34.4681 36.7775 34.3063C36.7775 34.143 36.753 33.9958 36.703 33.8662C36.6543 33.7416 36.5812 33.6248 36.4815 33.5163L34.2923 31.3106C33.9616 30.978 33.9224 30.4573 34.1768 30.0796C34.3416 29.8185 34.5001 29.541 34.6538 29.2499C34.8179 28.9402 34.9649 28.6369 35.0975 28.3397C35.2357 28.031 35.3655 27.7152 35.4877 27.394C35.5975 27.1033 35.7106 26.7788 35.8246 26.4247C35.9552 26.0194 36.3236 25.7623 36.7194 25.7623L40.0494 25.7619C40.2093 25.7619 40.3507 25.7365 40.4731 25.6853C40.5942 25.6344 40.7062 25.5571 40.8087 25.4525L40.8122 25.4486C40.9148 25.3433 40.9914 25.2291 41.0404 25.1049C41.0904 24.9795 41.1149 24.8352 41.1149 24.6716V20.394C41.1149 20.2429 41.0918 20.1083 41.0439 19.9909C40.9938 19.8666 40.912 19.7441 40.7979 19.6231L40.7965 19.622C40.6932 19.516 40.5827 19.438 40.4658 19.3879C40.3461 19.3363 40.2075 19.3105 40.0497 19.3105H37.0008C36.5312 19.3105 36.1424 18.96 36.0706 18.5006C35.9968 18.1987 35.9135 17.8925 35.819 17.5817C35.7281 17.2835 35.6217 16.968 35.4971 16.6346C35.4908 16.6185 35.4856 16.6021 35.4807 16.5856C35.3624 16.2687 35.2413 15.9708 35.1171 15.6918C34.9824 15.39 34.8396 15.0981 34.6884 14.816C34.4862 14.4354 34.5614 13.9763 34.8434 13.6827V13.6823L37.2142 11.2209C37.2216 11.2134 37.2286 11.2059 37.2363 11.1984C37.3451 11.0935 37.4242 10.9832 37.4735 10.8679C37.5208 10.7569 37.5453 10.6255 37.5453 10.4722C37.5453 10.32 37.5201 10.184 37.47 10.0644C37.4154 9.9333 37.3301 9.80798 37.2146 9.68766L37.2139 9.68695L34.2888 6.70098L34.2853 6.69775ZM34.6569 4.6707C35.0076 4.82217 35.326 5.04382 35.6129 5.33744L35.6136 5.33779L38.5464 8.332L38.5538 8.33952C38.8362 8.63314 39.0521 8.95648 39.1997 9.31097C39.3523 9.67656 39.4293 10.0636 39.4293 10.4722C39.4293 10.8868 39.3506 11.2743 39.1955 11.6363C39.0444 11.9915 38.8236 12.3073 38.538 12.5863L36.6599 14.536C36.7152 14.6538 36.7705 14.773 36.8241 14.8937C36.9745 15.2296 37.1124 15.5661 37.2377 15.9031C37.2447 15.9181 37.2506 15.9335 37.2562 15.9493C37.3811 16.2848 37.5008 16.6414 37.6149 17.0167C37.6516 17.1377 37.6873 17.2595 37.7216 17.3823H40.0494C40.4539 17.3823 40.8325 17.4582 41.1874 17.61C41.5359 17.7593 41.8508 17.9796 42.1318 18.2692L42.1518 18.2896C42.4286 18.5826 42.6385 18.9055 42.7813 19.26C42.9276 19.6206 43 19.9984 43 20.394V24.6712C43 25.0827 42.929 25.4679 42.7855 25.8278C42.642 26.1869 42.4282 26.5132 42.1423 26.8064L42.1409 26.8075L42.1388 26.81L42.1374 26.8114C41.8505 27.104 41.532 27.3235 41.18 27.4703C40.828 27.6167 40.4514 27.6898 40.0497 27.6898H37.3871C37.3405 27.818 37.2923 27.9505 37.2401 28.0858C37.1068 28.4364 36.9626 28.7869 36.8062 29.1371C36.6442 29.4991 36.4794 29.8411 36.3114 30.1601C36.2561 30.2647 36.1994 30.3689 36.1413 30.4731L37.8035 32.1474C37.8158 32.1592 37.8273 32.1711 37.8399 32.184C38.1125 32.479 38.3176 32.8066 38.4558 33.1647C38.5944 33.5242 38.6629 33.9052 38.6629 34.3055C38.6629 34.7044 38.5947 35.0822 38.4572 35.4403C38.3197 35.7973 38.1167 36.1235 37.8469 36.4192C37.8375 36.4293 37.8277 36.4397 37.8175 36.4497L34.8676 39.4335C34.5908 39.7303 34.279 39.9574 33.9291 40.1113C33.5756 40.2674 33.1935 40.3466 32.7802 40.3466C32.3757 40.3466 31.9943 40.2657 31.636 40.1077C31.2811 39.9506 30.9676 39.7232 30.6943 39.4281L28.8243 37.5096C28.6993 37.5712 28.5768 37.6295 28.4579 37.6847C28.1394 37.8315 27.799 37.9765 27.4375 38.1194C27.0977 38.2547 26.7432 38.3797 26.3754 38.495C26.253 38.5333 26.1322 38.5698 26.0132 38.6046V40.9814C26.0132 41.395 25.9387 41.7828 25.7903 42.1455C25.6441 42.5025 25.4296 42.8244 25.1458 43.1123L25.1258 43.1331C24.8396 43.4156 24.5236 43.6301 24.1779 43.7769C23.8251 43.9262 23.4559 44.0004 23.0693 44.0004H18.889C18.067 44.0004 17.3727 43.7103 16.7974 43.1217L16.7992 43.1199C16.5122 42.8259 16.297 42.499 16.1536 42.1384C16.0101 41.7782 15.9387 41.3932 15.9387 40.9818V38.2572C15.8131 38.2096 15.684 38.1598 15.5513 38.1068C15.2091 37.9704 14.8665 37.8229 14.5243 37.6625C14.1705 37.497 13.8363 37.328 13.5242 37.1558C13.4223 37.0996 13.3205 37.0416 13.2187 36.9821L11.5824 38.683C11.5709 38.6955 11.559 38.7077 11.5467 38.7199C11.2584 38.9995 10.9382 39.2093 10.5882 39.3504C10.2369 39.4922 9.86458 39.5628 9.47336 39.5628C9.08354 39.5628 8.71401 39.4929 8.36443 39.3519C8.01554 39.2111 7.69711 39.0035 7.40771 38.7277L7.40806 38.727C7.39791 38.7177 7.38776 38.7077 7.37832 38.6973L4.44554 35.6616C4.16349 35.3679 3.94758 35.0442 3.79991 34.6897C3.64769 34.3238 3.57036 33.9371 3.57036 33.5289C3.57036 33.1142 3.64909 32.7268 3.80376 32.3644C3.95668 32.0067 4.17854 31.6891 4.46758 31.4084L6.34287 29.4948C6.28268 29.367 6.22529 29.2417 6.1714 29.1188C6.02758 28.7934 5.88621 28.4457 5.74693 28.0761C5.61466 27.7285 5.49218 27.3657 5.37951 26.989C5.34206 26.8633 5.30637 26.7402 5.27243 26.6184H2.95028C2.54576 26.6184 2.16678 26.5422 1.81265 26.3903C1.46342 26.241 1.14883 26.0212 0.867831 25.7311L0.847535 25.7096C0.571089 25.4171 0.36148 25.0938 0.218358 24.7396C0.0724359 24.3787 0 24.0009 0 23.606V19.3284C0 18.917 0.0713861 18.5317 0.214858 18.1718C0.35833 17.812 0.572139 17.4858 0.858383 17.1925L0.858733 17.1922L0.860833 17.1904L0.862582 17.1886C1.14953 16.8957 1.46797 16.6765 1.82 16.5297C2.17168 16.3829 2.54821 16.3102 2.95028 16.3102H5.61291C5.6591 16.1817 5.70809 16.0495 5.75988 15.9138C5.89286 15.5636 6.03738 15.2131 6.19415 14.8625C6.35582 14.5005 6.52063 14.1586 6.6893 13.8395C6.74529 13.7332 6.80338 13.6268 6.86287 13.5205L5.22484 11.839L5.22414 11.8386C4.93474 11.5475 4.71568 11.2199 4.56626 10.8578C4.41334 10.4883 4.33776 10.0994 4.33776 9.69447C4.33776 9.2902 4.41299 8.90492 4.56486 8.53717C4.71533 8.17301 4.93229 7.84538 5.21679 7.55427L5.21854 7.55606L8.14257 4.55684L8.14992 4.54932C8.43686 4.26071 8.75285 4.03978 9.09928 3.88867C9.45691 3.73291 9.83484 3.65342 10.2341 3.65342C10.639 3.65342 11.0176 3.73398 11.3717 3.89225C11.7189 4.0473 12.0275 4.27288 12.3001 4.56543L14.2041 6.48542C14.3185 6.42741 14.4326 6.37191 14.5463 6.3182C14.8392 6.17998 15.1626 6.04069 15.5163 5.90033C15.5314 5.89316 15.5468 5.88672 15.5622 5.88063C15.902 5.74528 16.2568 5.61995 16.6249 5.50466C16.7474 5.46634 16.8681 5.42982 16.9871 5.39508V3.01855C16.9871 2.60498 17.0616 2.21719 17.21 1.85482C17.3559 1.49746 17.5711 1.17555 17.8542 0.887663L17.8742 0.867253C18.1604 0.584375 18.4761 0.370247 18.8221 0.223796C19.1749 0.0741211 19.5441 0 19.9307 0H24.1103C24.512 0 24.8889 0.0726888 25.2406 0.219499C25.594 0.367025 25.9139 0.58724 26.2022 0.881934C26.4871 1.17412 26.7019 1.50068 26.8461 1.86198C26.9896 2.22184 27.0606 2.60713 27.0606 3.0182V5.74313C27.1862 5.79076 27.315 5.84089 27.448 5.89352C27.7899 6.02959 28.1321 6.17747 28.4747 6.33753C28.8288 6.50296 29.163 6.67197 29.4744 6.84456C29.5791 6.90221 29.683 6.9613 29.7869 7.02217L31.4298 5.34603L31.4305 5.34567C31.715 5.04954 32.0356 4.82539 32.3887 4.67249C32.7501 4.51602 33.1295 4.43867 33.5252 4.43867C33.921 4.43867 34.2975 4.5153 34.6569 4.6707ZM21.4998 12.6564C22.1231 12.6564 22.7312 12.7173 23.3244 12.8383C23.9074 12.9576 24.4854 13.1406 25.0576 13.3876L25.0639 13.3905L25.0653 13.3876C25.6115 13.629 26.1294 13.9172 26.6193 14.2531C27.1047 14.5857 27.5543 14.9614 27.9666 15.3792L27.9701 15.3832C28.3788 15.8053 28.7459 16.2651 29.071 16.7621C29.3992 17.2634 29.6805 17.7934 29.9164 18.3523C29.9272 18.3788 29.937 18.4053 29.9458 18.4322C30.1718 18.994 30.3416 19.5608 30.4528 20.1334C30.5718 20.7407 30.6306 21.3626 30.6306 22C30.6306 22.6377 30.5718 23.2601 30.4528 23.867C30.3367 24.4639 30.1575 25.0547 29.9164 25.6405L29.9136 25.647L29.9164 25.6484C29.6805 26.2074 29.3988 26.7369 29.071 27.2383C28.7455 27.7353 28.3784 28.195 27.9701 28.6172L27.9666 28.6211C27.5536 29.0394 27.1047 29.415 26.6186 29.7476C26.1294 30.0835 25.6112 30.3714 25.0653 30.6127C25.0394 30.6238 25.0135 30.6342 24.9865 30.6428C24.4379 30.8745 23.8836 31.0478 23.3244 31.162C22.7312 31.2834 22.1227 31.3439 21.4998 31.3439C20.8766 31.3439 20.2688 31.2834 19.6756 31.162C19.0923 31.0428 18.5146 30.8594 17.9421 30.6127L17.9358 30.6099L17.9347 30.6127C17.3885 30.3714 16.8702 30.0831 16.3807 29.7476C15.895 29.415 15.4457 29.0394 15.0334 28.6211L15.0299 28.6172C14.6212 28.1947 14.2538 27.7353 13.929 27.2379C13.6012 26.7369 13.3195 26.2066 13.084 25.6484C13.0728 25.6219 13.063 25.5954 13.0542 25.5682C12.8278 25.0064 12.6584 24.4396 12.5468 23.867C12.4285 23.2601 12.369 22.6377 12.369 22C12.369 21.3623 12.4282 20.7403 12.5468 20.1334C12.6633 19.5365 12.8425 18.9453 13.084 18.3598L13.0864 18.3534L13.084 18.3523C13.3195 17.7934 13.6015 17.2634 13.929 16.7625C14.2541 16.2651 14.6212 15.8057 15.0299 15.3832L15.0338 15.3796C15.446 14.9617 15.8953 14.5861 16.3807 14.2535C16.8706 13.9179 17.3888 13.6293 17.9351 13.388C17.961 13.3765 17.9869 13.3665 18.0135 13.3579C18.5625 13.1262 19.1161 12.9533 19.6756 12.8391C20.2688 12.7173 20.8766 12.6564 21.4998 12.6564ZM22.9562 14.729C22.4859 14.6327 22.0009 14.5847 21.4998 14.5847C20.9991 14.5847 20.5141 14.6327 20.0434 14.729C19.5864 14.8224 19.15 14.9563 18.7343 15.1307C18.7161 15.14 18.6976 15.1494 18.6783 15.1576C18.2241 15.3585 17.8063 15.5891 17.4256 15.8497C17.042 16.1122 16.6872 16.4094 16.3604 16.7403C16.0367 17.0751 15.7462 17.4389 15.4894 17.8317C15.2346 18.2209 15.0093 18.6481 14.8133 19.1129L14.8109 19.1118C14.6286 19.5547 14.49 20.0209 14.3941 20.5101C14.3003 20.9913 14.2534 21.4876 14.2534 22C14.2534 22.5124 14.3003 23.0087 14.3941 23.4903C14.4854 23.9579 14.6167 24.4045 14.7871 24.8299C14.7962 24.8488 14.8053 24.8674 14.8133 24.8871C15.0093 25.3519 15.2346 25.7787 15.489 26.168C15.7459 26.5608 16.0363 26.9246 16.3604 27.2594C16.6872 27.5906 17.0424 27.8874 17.4259 28.1499C17.8063 28.4106 18.2238 28.6412 18.6783 28.8421L18.6773 28.8446C19.1105 29.0311 19.5658 29.1733 20.0438 29.2707C20.5141 29.367 20.9994 29.4146 21.5002 29.4146C22.0009 29.4146 22.4863 29.3666 22.9566 29.2707C23.414 29.1772 23.85 29.0433 24.266 28.8689C24.2839 28.8596 24.3028 28.8503 24.322 28.8421C24.7759 28.6412 25.1934 28.4106 25.5741 28.1499C25.9576 27.8874 26.3128 27.5902 26.6396 27.2594C26.9637 26.9246 27.2541 26.5611 27.511 26.1683C27.7654 25.7791 27.9907 25.3519 28.1863 24.8871L28.1891 24.8882C28.3714 24.4453 28.5104 23.9791 28.6059 23.4903C28.6997 23.0087 28.7466 22.5124 28.7466 22C28.7466 21.4876 28.6993 20.9913 28.6059 20.5101C28.5142 20.0421 28.3837 19.5959 28.2129 19.1702C28.2035 19.1515 28.1951 19.1326 28.1863 19.1129C27.9907 18.6481 27.7654 18.2209 27.5103 17.8317C27.2541 17.4389 26.9633 17.0751 26.6396 16.7406C26.3128 16.4098 25.9576 16.1126 25.5741 15.8501C25.1934 15.5894 24.7759 15.3588 24.322 15.1579L24.3227 15.1554C23.8899 14.9689 23.4346 14.8267 22.9562 14.729Z" fill="#D3D3D3"/>
</g>
<defs>
<clipPath id="clip0_169_951">
<rect width="43" height="44" fill="white"/>
</clipPath>
</defs>
</svg>
