<svg width="178" height="68" viewBox="0 0 178 68" fill="none" xmlns="http://www.w3.org/2000/svg">
<path d="M0.550001 0.499996H6.1V48.2H35.5V53H0.550001V0.499996ZM59.1291 53.375C55.3291 53.375 51.9041 52.525 48.8541 50.825C45.8041 49.075 43.4041 46.675 41.6541 43.625C39.9041 40.575 39.0291 37.125 39.0291 33.275C39.0291 29.425 39.9041 25.975 41.6541 22.925C43.4041 19.875 45.8041 17.5 48.8541 15.8C51.9041 14.1 55.3291 13.25 59.1291 13.25C62.9291 13.25 66.3541 14.1 69.4041 15.8C72.4541 17.5 74.8291 19.875 76.5291 22.925C78.2791 25.975 79.1541 29.425 79.1541 33.275C79.1541 37.125 78.2791 40.575 76.5291 43.625C74.8291 46.675 72.4541 49.075 69.4041 50.825C66.3541 52.525 62.9291 53.375 59.1291 53.375ZM59.1291 48.65C61.9291 48.65 64.4291 48.025 66.6291 46.775C68.8791 45.475 70.6291 43.65 71.8791 41.3C73.1291 38.95 73.7541 36.275 73.7541 33.275C73.7541 30.275 73.1291 27.6 71.8791 25.25C70.6291 22.9 68.8791 21.1 66.6291 19.85C64.4291 18.55 61.9291 17.9 59.1291 17.9C56.3291 17.9 53.8041 18.55 51.5541 19.85C49.3541 21.1 47.6041 22.9 46.3041 25.25C45.0541 27.6 44.4291 30.275 44.4291 33.275C44.4291 36.275 45.0541 38.95 46.3041 41.3C47.6041 43.65 49.3541 45.475 51.5541 46.775C53.8041 48.025 56.3291 48.65 59.1291 48.65ZM126.551 13.55V48.2C126.551 54.9 124.901 59.85 121.601 63.05C118.351 66.3 113.426 67.925 106.826 67.925C103.176 67.925 99.7006 67.375 96.4006 66.275C93.1506 65.225 90.5006 63.75 88.4506 61.85L91.1506 57.8C93.0506 59.5 95.3506 60.825 98.0506 61.775C100.801 62.725 103.676 63.2 106.676 63.2C111.676 63.2 115.351 62.025 117.701 59.675C120.051 57.375 121.226 53.775 121.226 48.875V43.85C119.576 46.35 117.401 48.25 114.701 49.55C112.051 50.85 109.101 51.5 105.851 51.5C102.151 51.5 98.7756 50.7 95.7256 49.1C92.7256 47.45 90.3506 45.175 88.6006 42.275C86.9006 39.325 86.0506 36 86.0506 32.3C86.0506 28.6 86.9006 25.3 88.6006 22.4C90.3506 19.5 92.7256 17.25 95.7256 15.65C98.7256 14.05 102.101 13.25 105.851 13.25C109.201 13.25 112.226 13.925 114.926 15.275C117.626 16.625 119.801 18.575 121.451 21.125V13.55H126.551ZM106.376 46.775C109.226 46.775 111.801 46.175 114.101 44.975C116.401 43.725 118.176 42 119.426 39.8C120.726 37.6 121.376 35.1 121.376 32.3C121.376 29.5 120.726 27.025 119.426 24.875C118.176 22.675 116.401 20.975 114.101 19.775C111.851 18.525 109.276 17.9 106.376 17.9C103.526 17.9 100.951 18.5 98.6506 19.7C96.4006 20.9 94.6256 22.6 93.3256 24.8C92.0756 27 91.4506 29.5 91.4506 32.3C91.4506 35.1 92.0756 37.6 93.3256 39.8C94.6256 42 96.4006 43.725 98.6506 44.975C100.951 46.175 103.526 46.775 106.376 46.775ZM157.567 53.375C153.767 53.375 150.342 52.525 147.292 50.825C144.242 49.075 141.842 46.675 140.092 43.625C138.342 40.575 137.467 37.125 137.467 33.275C137.467 29.425 138.342 25.975 140.092 22.925C141.842 19.875 144.242 17.5 147.292 15.8C150.342 14.1 153.767 13.25 157.567 13.25C161.367 13.25 164.792 14.1 167.842 15.8C170.892 17.5 173.267 19.875 174.967 22.925C176.717 25.975 177.592 29.425 177.592 33.275C177.592 37.125 176.717 40.575 174.967 43.625C173.267 46.675 170.892 49.075 167.842 50.825C164.792 52.525 161.367 53.375 157.567 53.375ZM157.567 48.65C160.367 48.65 162.867 48.025 165.067 46.775C167.317 45.475 169.067 43.65 170.317 41.3C171.567 38.95 172.192 36.275 172.192 33.275C172.192 30.275 171.567 27.6 170.317 25.25C169.067 22.9 167.317 21.1 165.067 19.85C162.867 18.55 160.367 17.9 157.567 17.9C154.767 17.9 152.242 18.55 149.992 19.85C147.792 21.1 146.042 22.9 144.742 25.25C143.492 27.6 142.867 30.275 142.867 33.275C142.867 36.275 143.492 38.95 144.742 41.3C146.042 43.65 147.792 45.475 149.992 46.775C152.242 48.025 154.767 48.65 157.567 48.65Z" fill="#FFDE78"/>
</svg>
