<svg width="37" height="37" viewBox="0 0 37 37" fill="none" xmlns="http://www.w3.org/2000/svg">
<g clip-path="url(#clip0_162_2776)">
<path fill-rule="evenodd" clip-rule="evenodd" d="M18.4367 0C25.3357 3.9793 31.5686 5.86131 36.9169 5.417C37.8514 22.6093 30.8738 32.7621 18.5074 37C6.56657 33.0337 -0.496777 23.3174 0.0272576 5.15547C6.30614 5.45456 12.4667 4.21988 18.4367 0ZM22.109 15.91V14.6934C22.109 13.7354 21.6993 12.867 21.0387 12.2406C20.386 11.6215 19.4872 11.2364 18.4995 11.2364C17.5125 11.2364 16.6137 11.6215 15.9611 12.2406C15.3005 12.867 14.8908 13.7354 14.8908 14.6934V15.91H22.109ZM13.2774 15.91V14.6934C13.2774 13.346 13.861 12.1185 14.8011 11.2263C15.7499 10.3268 17.0584 9.76836 18.5003 9.76836C19.9422 9.76836 21.2514 10.3261 22.1987 11.2263C23.1396 12.1185 23.7231 13.346 23.7231 14.6934V15.91H24.3004C24.7688 15.91 25.1523 16.2589 25.1523 16.6852V24.8793C25.1523 25.3063 24.7688 25.6552 24.3004 25.6552H12.7002C12.2309 25.6552 11.8482 25.3063 11.8482 24.8793V16.6852C11.8474 16.2589 12.2309 15.91 12.7002 15.91H13.2774ZM17.8008 21.1435L16.8805 23.3347H20.1192L19.2673 21.1131C19.808 20.8603 20.1772 20.3473 20.1772 19.7564C20.1772 18.9125 19.4268 18.2298 18.4995 18.2298C17.5737 18.2298 16.8226 18.9125 16.8226 19.7564C16.8226 20.3712 17.2235 20.9015 17.8008 21.1435ZM18.4487 2.86383C24.1702 6.16329 29.6614 8.01857 34.0974 7.64939C34.8724 21.9071 28.7626 30.6214 18.509 34.1354C8.60475 30.8468 2.42432 22.4952 2.85863 7.43338C8.60554 7.70719 13.8721 6.099 18.4487 2.86383Z" fill="#D3D3D3"/>
</g>
<defs>
<clipPath id="clip0_162_2776">
<rect width="37" height="37" fill="white"/>
</clipPath>
</defs>
</svg>
