<svg width="37" height="37" viewBox="0 0 37 37" fill="none" xmlns="http://www.w3.org/2000/svg">
<g clip-path="url(#clip0_162_2765)">
<path d="M18.4998 0C23.6084 0 28.2333 2.07071 31.5813 5.41842C34.9293 8.76612 37 13.3914 37 18.4997C37 23.6086 34.9293 28.2336 31.5813 31.5813C28.2333 34.929 23.6084 37 18.4998 37C13.3913 37 8.76635 34.9293 5.41867 31.5816C2.071 28.2339 0 23.6086 0 18.4997C0 13.3914 2.07069 8.76612 5.41867 5.41842C8.76665 2.07071 13.3913 0 18.4998 0ZM10.405 20.2281C10.0096 19.8703 9.9789 19.2597 10.3369 18.8643C10.6946 18.469 11.3053 18.4383 11.7006 18.796L15.7478 22.4659L25.2455 12.5185C25.6137 12.1313 26.2265 12.1162 26.6134 12.4842C27.0003 12.8524 27.0157 13.4649 26.6474 13.8518L16.4984 24.4815L16.4972 24.4803C16.1374 24.8588 15.5391 24.8832 15.1498 24.5309L10.405 20.2281ZM30.2098 6.78996C27.2129 3.79334 23.0727 1.93943 18.4998 1.93943C13.9267 1.93943 9.78649 3.79304 6.7899 6.78966C3.79301 9.78657 1.93971 13.9265 1.93971 18.4997C1.93971 23.0729 3.79331 27.2131 6.7899 30.21C9.78649 33.2067 13.9267 35.0603 18.4998 35.0603C23.0727 35.0603 27.2129 33.2067 30.2098 30.21C33.2067 27.2131 35.0597 23.0732 35.0597 18.4997C35.06 13.9268 33.2067 9.78657 30.2098 6.78996Z" fill="#D3D3D3"/>
</g>
<defs>
<clipPath id="clip0_162_2765">
<rect width="37" height="37" fill="white"/>
</clipPath>
</defs>
</svg>
