<svg width="37" height="37" viewBox="0 0 37 37" fill="none" xmlns="http://www.w3.org/2000/svg">
<g clip-path="url(#clip0_162_2784)">
<path d="M28.825 4.77405C31.9956 7.90523 34.7266 12.4452 36.7983 17.9612L37 18.5L36.7983 19.0344C34.7266 24.5504 31.9926 29.0904 28.825 32.2215C25.7326 35.2776 22.2217 37 18.5 37C14.7783 37 11.2674 35.2776 8.17806 32.226C5.00439 29.0904 2.27336 24.5504 0.201742 19.0344L0 18.5L0.201742 17.9612C2.27336 12.4452 5.00439 7.90523 8.17505 4.77405C11.2674 1.72237 14.7783 0 18.5 0C22.2217 0 25.7296 1.72237 28.825 4.77405ZM18.3043 9.791L19.5328 9.96324C19.0962 10.926 18.8372 12.0919 18.8372 13.3506C18.8372 16.654 20.6017 19.3303 22.7817 19.3303C23.4803 19.3303 24.1367 19.0565 24.7058 18.5707C24.7148 18.7782 24.7209 18.9858 24.7209 19.1978C24.7209 24.3958 21.8483 28.609 18.3043 28.609C14.7603 28.609 11.8877 24.3958 11.8877 19.1978C11.8877 14.0042 14.7603 9.791 18.3043 9.791ZM32.8206 18.5C31.1646 14.2338 29.0237 10.7273 26.5606 8.29387C24.1367 5.90022 21.3966 4.54882 18.5 4.54882C15.6064 4.54882 12.8663 5.90022 10.4424 8.29387C7.97933 10.7273 5.83846 14.2338 4.17936 18.5C5.83545 22.7662 7.97933 26.2727 10.4424 28.7017C12.8663 31.0954 15.6064 32.4468 18.5 32.4468C21.3966 32.4468 24.1337 31.0954 26.5606 28.7017C29.0237 26.2727 31.1646 22.7662 32.8206 18.5Z" fill="#D3D3D3"/>
</g>
<defs>
<clipPath id="clip0_162_2784">
<rect width="37" height="37" fill="white"/>
</clipPath>
</defs>
</svg>
