<svg width="37" height="37" viewBox="0 0 37 37" fill="none" xmlns="http://www.w3.org/2000/svg">
<g clip-path="url(#clip0_162_2794)">
<path fill-rule="evenodd" clip-rule="evenodd" d="M18.4779 31.1858C19.5439 31.1858 20.4046 31.9085 20.4046 32.7968C20.4046 33.688 19.5403 34.4077 18.4779 34.4077C17.4119 34.4077 16.5512 33.685 16.5512 32.7968C16.5512 31.9055 17.4155 31.1858 18.4779 31.1858ZM11.2537 11.1442C10.8539 11.1562 10.5478 11.2255 10.3389 11.3429C10.2201 11.4092 10.1337 11.4935 10.076 11.5958C10.0148 11.7072 9.986 11.8458 9.9896 12.0023C10.004 12.463 10.2957 13.0652 10.8539 13.7578L10.8611 13.7668L12.6726 16.1757C13.4001 17.1422 14.1599 18.1268 15.1071 18.8495C16.0182 19.5451 17.1202 20.0148 18.5824 20.0178C20.1633 20.0208 21.3194 19.533 22.2593 18.7983C23.2353 18.0335 24.006 16.9856 24.7658 15.9408L26.8078 13.1315C27.1895 12.4058 27.3264 11.921 27.2399 11.635C27.1895 11.4664 26.9662 11.3821 26.5845 11.367C26.5053 11.364 26.4188 11.364 26.336 11.364C26.246 11.367 26.1487 11.37 26.0515 11.379C25.9975 11.3821 25.9435 11.379 25.893 11.37C25.713 11.379 25.5257 11.367 25.3348 11.3459L26.0335 8.75941C20.8476 9.44292 16.969 6.22409 11.4878 8.11504L11.8839 11.1622C11.657 11.1743 11.4445 11.1683 11.2537 11.1442ZM27.2724 10.5992C27.7729 10.7256 28.0971 10.9936 28.2267 11.4242C28.3708 11.903 28.2159 12.5744 27.7297 13.4928C27.7225 13.5109 27.7117 13.5259 27.7009 13.541L25.6374 16.3834C24.8415 17.4795 24.0348 18.5785 22.9544 19.4216L22.9003 19.4607C23.0048 19.5842 23.1164 19.7227 23.2317 19.8642C23.5882 20.3038 23.9988 20.8037 24.3769 21.1951C26.6205 22.3604 31.5543 22.6766 33.4846 23.5739C38.3968 25.8623 36.6034 31.4237 36.9599 35.4254C36.8555 36.3709 36.2144 36.9129 34.9504 36.9942H33.5855L35.08 27.5093C35.1953 26.7716 34.5686 26.1664 33.798 26.1664H23.2821C23.5414 24.6157 23.7323 23.1342 23.8187 22.0171C23.3289 21.5595 22.8031 20.9181 22.3529 20.3641C22.2521 20.2406 22.1549 20.1232 22.0648 20.0118C21.1177 20.5447 19.9905 20.8729 18.5788 20.8699C17.005 20.8669 15.7805 20.4153 14.7614 19.7257C14.4768 20.4393 14.0555 21.421 13.6521 21.8877C13.6161 21.9298 13.5729 21.966 13.5261 21.9931C13.699 23.1493 13.9403 24.6307 14.2248 26.1664H3.4496C2.67891 26.1664 2.04868 26.7716 2.16752 27.5093L3.66207 36.9942H2.29717C1.03671 36.9129 0.395673 36.3709 0.291235 35.4254C0.352457 31.1889 -1.57065 26.061 3.76651 23.5739C5.72203 22.6615 10.7603 22.3514 12.9607 21.1469C13.2956 20.62 13.6702 19.6715 13.8934 19.1054C13.9186 19.0422 13.8754 19.1476 13.915 19.0512C13.1083 18.3256 12.4457 17.4674 11.8119 16.6243L10.0004 14.2155C9.33776 13.3904 8.99203 12.6347 8.97403 12.0144C8.96322 11.7223 9.02444 11.4573 9.15049 11.2255C9.28734 10.9816 9.49262 10.7768 9.77352 10.6203C9.90317 10.545 10.0508 10.4848 10.2129 10.4336C10.094 9.12676 10.0508 7.48272 10.1264 6.10365C10.1661 5.77544 10.2417 5.45025 10.3497 5.12204C11.0124 3.14076 13.0507 1.71351 15.3772 1.04204C16.5044 0.716849 16.0686 -0.0600061 17.2103 -0.00881799C19.9148 0.114636 24.0852 1.57199 25.6878 3.11667C27.9278 5.29367 27.3516 7.95847 27.2724 10.5992ZM14.8946 23.8449C13.9799 22.9747 13.9042 22.0653 14.8946 21.1018C16.0398 21.3427 17.0914 21.7582 18.0566 22.3183C18.2654 22.243 18.5067 22.2099 18.7444 22.2249C19.7492 21.6287 21.0313 21.3908 22.1513 20.9422C23.4874 22.0322 23.3469 23.0319 22.0288 23.9653C21.2942 23.8238 20.5955 23.607 19.9257 23.3239C19.9076 23.4685 19.8608 23.6251 19.7816 23.7967L20.1237 26.1724H17.3939L17.736 23.7967C17.5236 23.4956 17.4407 23.2366 17.4479 23.0228C16.6557 23.4203 15.7949 23.6732 14.8946 23.8449Z" fill="#D3D3D3"/>
</g>
<defs>
<clipPath id="clip0_162_2794">
<rect width="37" height="37" fill="white"/>
</clipPath>
</defs>
</svg>
