<svg width="99" height="82" viewBox="0 0 99 82" fill="none" xmlns="http://www.w3.org/2000/svg">
<path fill-rule="evenodd" clip-rule="evenodd" d="M6.80416 35.3016C33.3799 23.7279 51.0995 16.1011 59.9664 12.414C85.2851 1.89023 90.5447 0.060929 93.9739 0.000427037C94.7289 -0.0102498 96.4132 0.174814 97.5065 1.06099C98.4288 1.80837 98.6816 2.81911 98.8027 3.52734C98.9237 4.23913 99.0769 5.85133 98.9558 7.11475C97.5848 21.5213 91.6486 56.4808 88.6289 72.6171C87.3505 79.4467 84.8328 81.7351 82.3971 81.9593C77.1055 82.4468 73.0851 78.4608 67.9573 75.1012C59.9343 69.8482 55.4012 66.574 47.6132 61.4455C38.611 55.5163 44.4475 52.2599 49.5754 46.9357C50.9179 45.5406 74.2424 24.3365 74.6947 22.4146C74.7516 22.1726 74.8051 21.2758 74.2709 20.8024C73.7368 20.3291 72.9498 20.4928 72.3836 20.6209C71.5788 20.8024 58.7627 29.2692 33.9319 46.0211C30.2925 48.5195 26.995 49.7331 24.043 49.6726C20.7882 49.6014 14.528 47.8326 9.87374 46.32C4.16545 44.4658 -0.371265 43.4836 0.0240068 40.3339C0.226984 38.6932 2.48822 37.017 6.80416 35.3016Z" fill="#D3D3D3"/>
</svg>
